<svg width="228" height="37" viewBox="0 0 228 37" fill="none" xmlns="http://www.w3.org/2000/svg">
<path fill-rule="evenodd" clip-rule="evenodd" d="M21.5206 19.3401C22.615 19.7913 20.3485 20.9708 20.3485 20.9708C13.0406 25.3997 4.03133 25.5619 1.46878 25.5059C-0.194767 21.6245 -0.453724 17.297 0.735375 13.2497C1.92448 9.20237 4.48925 5.68162 7.99919 3.27843C11.5091 0.875233 15.7506 -0.264113 20.0115 0.0516332C24.2725 0.36738 28.2937 2.119 31.4 5.01247C18.1657 9.40602 12.9778 14.7785 12.9778 14.7785C11.1329 16.4357 11.9582 17.6388 11.9582 17.6388C12.8313 19.0453 15.8842 19.1426 15.8842 19.1426C15.8842 19.1426 18.0192 19.2369 19.2511 19.2045C20.0101 19.1863 20.7694 19.2317 21.5206 19.3401ZM19.7045 13.5407C24.4854 11.4518 29.5056 9.94287 34.6552 9.04688C37.0179 12.9852 37.8037 17.6518 36.8586 22.1318C35.9134 26.6118 33.3055 30.5821 29.5461 33.2645C25.7867 35.9468 21.1468 37.1476 16.5362 36.6316C11.9255 36.1156 7.67659 33.9199 4.62231 30.475C16.0775 28.1986 22.6259 22.9588 24.719 21.0539L24.7758 20.995L24.8416 20.9242C25.0051 20.7576 25.1569 20.5803 25.2961 20.3934C27.3383 17.7337 23.801 17.2885 23.801 17.2885C22.3837 17.0349 18.5773 16.9729 17.0015 16.9936C15.4944 17.0142 16.1732 15.9557 16.1732 15.9557C17.1629 14.6966 19.7045 13.5407 19.7045 13.5407ZM56.9687 19.4074C56.582 18.9386 56.1143 18.5409 55.5871 18.2327L55.5199 18.1922C55.8235 17.8963 56.0859 17.562 56.3003 17.198C56.5457 16.783 56.7293 16.3353 56.8455 15.8687C56.9661 15.3931 57.0263 14.9045 57.0247 14.4142C57.036 13.6616 56.9095 12.9132 56.6513 12.2049C56.3982 11.5205 55.9865 10.9039 55.449 10.4043C54.8759 9.90029 54.1997 9.52357 53.4662 9.2996C52.5219 9.02853 51.5406 8.90429 50.5575 8.93137H46.5359C46.1665 8.93815 45.8086 9.05923 45.5128 9.2775C45.3 9.43798 45.1311 9.64833 45.0216 9.88946C44.912 10.1306 44.8653 10.3949 44.8855 10.6583V27.3205C44.8646 27.5841 44.911 27.8486 45.0206 28.0898C45.1302 28.3311 45.2995 28.5414 45.5128 28.7014C45.8078 28.9212 46.1662 29.0425 46.5359 29.0475H51.3901C52.0441 29.054 52.697 28.9961 53.3393 28.8745C53.8962 28.7625 54.4377 28.5858 54.9524 28.3479C55.4458 28.1208 55.9056 27.8284 56.319 27.4789C56.7278 27.1339 57.0805 26.7291 57.3645 26.2785C57.6529 25.8205 57.8741 25.3246 58.0217 24.8056C58.1747 24.2412 58.2501 23.6591 58.2458 23.0749C58.2512 22.3892 58.1362 21.7078 57.906 21.0607C57.693 20.4602 57.3759 19.9008 56.9687 19.4074ZM51.5694 25.8366H48.332V20.2911H50.8599C51.4829 20.2762 52.105 20.3469 52.7082 20.501C53.1167 20.6059 53.4983 20.7941 53.8284 21.0533C54.107 21.2824 54.3238 21.5759 54.4595 21.9076C54.6254 22.3184 54.7054 22.758 54.6947 23.2001C54.705 23.5953 54.6259 23.9877 54.4632 24.349C54.3202 24.659 54.1084 24.9333 53.8434 25.1517C53.5679 25.3794 53.2493 25.5509 52.9061 25.6562C52.4733 25.7867 52.0219 25.8476 51.5694 25.8366ZM53.3057 13.4716C53.5173 14.1531 53.5173 14.8816 53.3057 15.5631C53.2129 15.8582 53.0576 16.1306 52.8501 16.3622C52.6365 16.5961 52.3723 16.7798 52.0772 16.8998C51.6384 17.0562 51.1731 17.1275 50.7068 17.1097H48.3357V12.146H50.4081C50.9597 12.1275 51.511 12.1908 52.0436 12.3338C52.3496 12.4238 52.6314 12.5798 52.8688 12.7904C53.0677 12.9797 53.2175 13.2133 53.3057 13.4716ZM69.2845 14.2449C70.064 14.5992 70.7511 15.1244 71.2934 15.7804C71.8147 16.4281 72.1971 17.1735 72.4173 17.9714C72.6484 18.7877 72.764 19.6315 72.7609 20.479V20.8214C72.7811 21.0849 72.7344 21.3492 72.6248 21.5903C72.5153 21.8315 72.3464 22.0418 72.1336 22.2023C71.8377 22.4206 71.4798 22.5416 71.1104 22.5484H63.0599C63.0891 22.9344 63.1503 23.3174 63.2429 23.6936C63.3516 24.1815 63.567 24.6402 63.8739 25.0376C64.1694 25.4001 64.5555 25.6806 64.9941 25.8514C65.5818 26.07 66.2072 26.1726 66.835 26.1533C67.3227 26.1594 67.8097 26.1137 68.2875 26.0171C68.6676 25.9359 69.0418 25.8301 69.4077 25.7004C69.7401 25.5789 70.0089 25.4684 70.2105 25.3764C70.4694 25.2373 70.7564 25.1568 71.0507 25.1407C71.2581 25.1408 71.4618 25.1954 71.6407 25.299C71.8382 25.4188 71.9944 25.5947 72.0887 25.8035C72.1561 25.9484 72.2014 26.1022 72.2232 26.2601C72.2457 26.4187 72.2557 26.5787 72.253 26.7388C72.2534 26.8448 72.2459 26.9506 72.2306 27.0555C72.2174 27.1461 72.1987 27.2359 72.1746 27.3243C72.1418 27.4542 72.0889 27.5784 72.0178 27.6925C71.9504 27.8041 71.8688 27.9068 71.7751 27.9981C71.5746 28.1707 71.3461 28.3089 71.0992 28.4069C70.7373 28.5709 70.3627 28.7063 69.979 28.8119C69.4875 28.9513 68.9889 29.0656 68.4854 29.1544C67.8689 29.2598 67.2442 29.3115 66.6184 29.309C65.5997 29.3241 64.5869 29.153 63.6312 28.8046C62.755 28.4747 61.9706 27.9447 61.3423 27.258C60.7067 26.5379 60.2356 25.6915 59.9607 24.7762C59.644 23.7174 59.4917 22.6174 59.5089 21.5137C59.4948 20.432 59.6522 19.3549 59.9756 18.3212C60.2656 17.4073 60.7379 16.5597 61.3647 15.8283C61.9709 15.135 62.7295 14.5872 63.5827 14.2265C64.4772 13.8562 65.4392 13.6707 66.4093 13.6815C67.3981 13.6584 68.3798 13.8508 69.2845 14.2449ZM63.9486 17.8462C63.67 18.1728 63.4548 18.5473 63.3138 18.9508C63.25 19.1366 63.1976 19.326 63.157 19.5179H69.2845C69.237 18.8462 68.9845 18.2043 68.5601 17.6768C68.0598 17.095 67.3167 16.8115 66.2936 16.8115C65.8259 16.8006 65.3621 16.8964 64.9381 17.0913C64.5575 17.2706 64.2202 17.5279 63.9486 17.8462ZM83.0912 21.5054C82.7073 21.1731 82.2788 20.8943 81.8179 20.6769C81.396 20.4707 80.9591 20.2829 80.5185 20.1135C80.0779 19.9442 79.6933 19.7932 79.2937 19.6312C78.9674 19.5036 78.6547 19.3445 78.3602 19.1562C78.1482 19.0224 77.9664 18.8469 77.8262 18.6406C77.7169 18.4624 77.6648 18.2558 77.6769 18.0478C77.6745 17.8701 77.7075 17.6937 77.774 17.5286C77.8378 17.3865 77.9335 17.2606 78.054 17.1604C78.2133 17.0326 78.3976 16.9386 78.5955 16.8842C78.9024 16.7972 79.2209 16.7563 79.5402 16.7627C79.8631 16.7564 80.1853 16.7973 80.4961 16.8842C80.7522 16.9621 81.0019 17.0594 81.2429 17.1751C81.4182 17.2586 81.5879 17.3533 81.7507 17.4586C81.9873 17.6419 82.2755 17.7487 82.5759 17.7643C82.8165 17.7635 83.0501 17.6845 83.2406 17.5396C83.4039 17.4136 83.5323 17.249 83.614 17.061C83.6717 16.9225 83.713 16.7779 83.7372 16.6301C83.7605 16.4852 83.7718 16.3387 83.7708 16.1919C83.7702 16.0628 83.7627 15.9337 83.7484 15.8053C83.7362 15.6987 83.7175 15.593 83.6924 15.4886C83.6549 15.3439 83.5944 15.206 83.5132 15.0799C83.405 14.924 83.2697 14.7881 83.1136 14.6785C82.9374 14.5496 82.7499 14.4362 82.5535 14.3398C82.2908 14.207 82.0172 14.0962 81.7358 14.0084C81.4076 13.9037 81.0718 13.8237 80.7313 13.769C80.3609 13.71 79.9863 13.6804 79.6111 13.6807C78.8295 13.6673 78.0518 13.792 77.3147 14.0489C76.6923 14.2679 76.1218 14.61 75.6381 15.0541C75.2014 15.4616 74.86 15.9579 74.6374 16.5086C74.4267 17.0249 74.3177 17.576 74.3163 18.1325C74.2994 18.7086 74.4087 19.2815 74.6368 19.8121C74.865 20.3428 75.2065 20.8186 75.6381 21.2072C76.0216 21.5516 76.4529 21.8405 76.9189 22.0651C77.3408 22.275 77.774 22.4702 78.2146 22.6432L79.4468 23.1293C79.7677 23.254 80.0753 23.4094 80.3654 23.5933C80.574 23.7239 80.7542 23.8942 80.8956 24.0941C80.9989 24.2555 81.0485 24.4447 81.0375 24.6353C81.0454 24.8711 80.9981 25.1054 80.8993 25.3202C80.8126 25.4898 80.6842 25.6354 80.5259 25.7437C80.3198 25.8841 80.0896 25.9864 79.8464 26.0456C79.5179 26.126 79.1803 26.1643 78.8419 26.1598C78.4377 26.1683 78.0346 26.1149 77.647 26.0015C77.3198 25.9051 77.0013 25.7819 76.6948 25.6332C76.46 25.5142 76.2319 25.3826 76.0115 25.2392C75.7427 25.038 75.4188 24.9212 75.0817 24.9041C74.8521 24.9039 74.6278 24.9733 74.4395 25.103C74.2607 25.2299 74.1211 25.4033 74.0362 25.6038C73.9808 25.7342 73.9395 25.8699 73.913 26.0088C73.8818 26.1715 73.8667 26.3367 73.8682 26.5022C73.8615 26.7837 73.8993 27.0645 73.9802 27.3344C74.0712 27.605 74.2305 27.8483 74.4432 28.0414C74.6472 28.2038 74.8689 28.3434 75.1042 28.4575C75.4148 28.623 75.7397 28.761 76.075 28.8699C76.4725 29.006 76.8793 29.1143 77.2923 29.194C77.7659 29.2736 78.2457 29.313 78.7261 29.3118C79.4842 29.3196 80.2391 29.2166 80.9666 29.0062C81.6289 28.8119 82.2474 28.4944 82.7888 28.0709C83.3125 27.6539 83.7316 27.1234 84.0135 26.5207C84.3018 25.8876 84.447 25.2004 84.4392 24.5065C84.4534 23.9005 84.3256 23.2994 84.0658 22.75C83.8271 22.276 83.4959 21.8531 83.0912 21.5054ZM93.4357 16.8477C93.2603 16.9422 93.0638 16.9921 92.864 16.9929H90.112V23.9708C90.0669 24.6014 90.1784 25.2334 90.4369 25.8119L90.4503 25.8319C90.5236 25.9425 90.6615 26.1507 91.2546 26.1507C91.3953 26.153 91.5358 26.1382 91.6728 26.1065C91.8088 26.0741 91.9423 26.0322 92.0724 25.9813C92.1943 25.9322 92.2989 25.888 92.386 25.8487C92.5572 25.7582 92.7472 25.7074 92.9414 25.7004C93.1355 25.6934 93.3287 25.7303 93.5062 25.8082C93.7219 25.9183 93.8931 26.0975 93.9916 26.3164C94.0492 26.4434 94.0906 26.577 94.1148 26.7141C94.1387 26.8639 94.15 27.0154 94.1485 27.167C94.1537 27.4028 94.126 27.6382 94.0663 27.8666C94.0039 28.1153 93.8749 28.3429 93.6929 28.5257C93.5293 28.683 93.3366 28.808 93.1253 28.894C92.9212 28.9843 92.7086 29.0546 92.4906 29.1039C92.2689 29.1545 92.0445 29.1926 91.8184 29.218C91.588 29.2456 91.3561 29.2592 91.1239 29.2585C90.4606 29.2725 89.8002 29.1677 89.1748 28.9492C88.6038 28.7396 88.0989 28.3853 87.7111 27.9219C87.3226 27.4385 87.0506 26.8744 86.9157 26.2722C86.7601 25.5908 86.6862 24.8938 86.6954 24.1954V16.9782H85.5752C85.3697 16.9799 85.1672 16.9292 84.9873 16.8312C84.8074 16.7332 84.6563 16.591 84.5484 16.4185C84.3695 16.1232 84.2825 15.7826 84.2982 15.439C84.2958 15.2733 84.3121 15.1078 84.3467 14.9456C84.3813 14.7711 84.447 14.604 84.5409 14.4522C84.6483 14.2788 84.8003 14.1365 84.9815 14.0398C85.1599 13.9433 85.3605 13.8939 85.564 13.8962H86.6842V11.5579C86.6856 11.3756 86.7276 11.1958 86.8074 11.0314C86.9203 10.817 87.1013 10.6449 87.3227 10.5416C87.4917 10.4602 87.6736 10.4079 87.8604 10.387C88.0326 10.3664 88.206 10.3565 88.3794 10.3575C88.5591 10.3563 88.7387 10.3662 88.9171 10.387C89.1073 10.408 89.292 10.4629 89.4623 10.549C89.6533 10.6471 89.8134 10.7948 89.9253 10.9761C90.0307 11.1524 90.0862 11.3533 90.0859 11.5579V13.8962H92.864C93.0712 13.895 93.2751 13.947 93.4558 14.0471C93.6365 14.1471 93.7877 14.2918 93.8945 14.4669C93.9878 14.6177 94.0535 14.7835 94.0887 14.9566C94.1228 15.1202 94.139 15.2868 94.1372 15.4538C94.1524 15.8056 94.0587 16.1536 93.8684 16.4516C93.7598 16.6171 93.6111 16.7532 93.4357 16.8477ZM107.393 11.2279C106.977 10.7132 106.471 10.2756 105.899 9.93539C105.371 9.61051 104.794 9.37062 104.189 9.22472C103.741 9.11756 103.285 9.04006 102.826 8.99273C102.453 8.95591 102.05 8.9375 101.65 8.9375H97.8528C97.4834 8.94427 97.1255 9.06535 96.8297 9.28363C96.6168 9.44411 96.4479 9.65445 96.3384 9.89559C96.2289 10.1367 96.1821 10.401 96.2024 10.6645V27.9379C96.2005 28.1585 96.2656 28.3746 96.3894 28.5584C96.5132 28.7421 96.69 28.8851 96.8969 28.9689C97.0493 29.0302 97.2084 29.0734 97.3711 29.0978C97.5539 29.1258 97.7387 29.1394 97.9237 29.1383C98.1164 29.1406 98.3088 29.1259 98.4988 29.0941C98.6541 29.0713 98.8059 29.0293 98.9506 28.9689C99.1717 28.8811 99.3578 28.7247 99.4808 28.5234C99.5898 28.347 99.6479 28.1445 99.6488 27.9379V21.7039H101.236C102.307 21.7267 103.375 21.5659 104.391 21.2289C105.244 20.9296 106.026 20.4608 106.687 19.8517C107.326 19.2549 107.827 18.5288 108.155 17.7234C108.498 16.8756 108.669 15.97 108.659 15.0574C108.666 14.3463 108.556 13.6388 108.334 12.9622C108.124 12.3349 107.806 11.7482 107.393 11.2279ZM101.352 18.5077H99.6488V12.1484H101.467C101.9 12.1505 102.332 12.1838 102.759 12.2478C103.156 12.3087 103.537 12.4464 103.879 12.6529C104.244 12.8855 104.542 13.2078 104.742 13.5882C105.007 14.0898 105.135 14.6505 105.115 15.2157C105.12 15.6804 105.039 16.142 104.876 16.5782C104.733 16.9587 104.506 17.3032 104.212 17.5871C103.896 17.8817 103.523 18.1087 103.114 18.2536C102.546 18.4407 101.95 18.5267 101.352 18.5077ZM119.039 14.221C119.278 14.3844 119.446 14.6301 119.51 14.9096C119.553 15.0359 119.581 15.167 119.592 15.2999V15.6939C119.594 15.8402 119.588 15.9865 119.573 16.1321C119.562 16.2895 119.528 16.4445 119.472 16.5924C119.412 16.7527 119.319 16.8993 119.2 17.0232C119.021 17.1817 118.798 17.2836 118.559 17.3157C118.321 17.3479 118.079 17.3089 117.863 17.2036C117.751 17.1631 117.624 17.1226 117.49 17.0821C117.355 17.0416 117.206 17.0011 117.045 16.9606C116.697 16.8527 116.326 16.8375 115.97 16.9164C115.77 16.9901 115.585 17.0986 115.425 17.2368C115.126 17.4713 114.873 17.7569 114.678 18.08C114.428 18.5202 114.215 18.9795 114.039 19.4535V27.9447C114.041 28.15 113.984 28.3514 113.875 28.5265C113.755 28.7209 113.578 28.8749 113.367 28.9684C113.22 29.0328 113.064 29.0774 112.904 29.101C112.714 29.1327 112.522 29.1475 112.329 29.1452C112.144 29.1465 111.959 29.1329 111.777 29.1046C111.619 29.0794 111.465 29.0362 111.317 28.9758C111.075 28.8795 110.877 28.6986 110.761 28.4676C110.678 28.3055 110.636 28.1262 110.638 27.9447V15.0532C110.637 14.8707 110.679 14.6905 110.761 14.5266C110.874 14.3138 111.053 14.1422 111.273 14.0369C111.433 13.9582 111.606 13.9071 111.784 13.8859C111.956 13.8631 112.13 13.8532 112.303 13.8565C112.477 13.8535 112.65 13.8633 112.822 13.8859C113.016 13.9075 113.204 13.9663 113.375 14.059C113.518 14.141 113.642 14.2525 113.738 14.386C113.834 14.5194 113.9 14.6716 113.931 14.8323C114.141 14.6343 114.367 14.4533 114.607 14.291C114.944 14.0687 115.316 13.9043 115.709 13.8049C116.052 13.7205 116.404 13.6785 116.758 13.6797C116.892 13.6797 117.071 13.6871 117.266 13.7055C117.474 13.7239 117.681 13.7547 117.885 13.7975C118.096 13.8377 118.303 13.8931 118.505 13.9632C118.696 14.0212 118.876 14.1082 119.039 14.221ZM182.483 14.9096C182.454 14.7976 182.41 14.6899 182.353 14.5892C182.266 14.4451 182.15 14.3199 182.013 14.221C181.85 14.1082 181.669 14.0212 181.479 13.9632C181.277 13.8931 181.07 13.8377 180.859 13.7975C180.655 13.7547 180.448 13.7239 180.239 13.7055C180.045 13.6871 179.866 13.6797 179.731 13.6797C179.378 13.6785 179.025 13.7205 178.682 13.8049C178.29 13.9043 177.917 14.0687 177.581 14.291C177.341 14.4533 177.115 14.6343 176.905 14.8323C176.874 14.6716 176.808 14.5194 176.712 14.386C176.616 14.2525 176.492 14.141 176.348 14.059C176.177 13.9663 175.99 13.9075 175.796 13.8859C175.624 13.8633 175.45 13.8535 175.277 13.8565C175.103 13.8532 174.93 13.8631 174.758 13.8859C174.58 13.9071 174.407 13.9582 174.246 14.0369C174.027 14.1422 173.848 14.3138 173.735 14.5266C173.653 14.6905 173.611 14.8707 173.611 15.0532V27.9448C173.61 28.1263 173.652 28.3055 173.735 28.4676C173.85 28.6987 174.049 28.8795 174.291 28.9758C174.438 29.0362 174.593 29.0794 174.75 29.1047C174.933 29.1329 175.118 29.1465 175.303 29.1452C175.496 29.1473 175.688 29.1325 175.878 29.101C176.037 29.0767 176.193 29.0322 176.341 28.9684C176.551 28.8749 176.728 28.7209 176.849 28.5266C176.957 28.3514 177.014 28.15 177.013 27.9448V19.4535C177.187 18.9789 177.4 18.5194 177.652 18.08C177.847 17.757 178.1 17.4713 178.398 17.2368C178.559 17.0979 178.743 16.9893 178.944 16.9164C179.3 16.8375 179.671 16.8527 180.019 16.9606C180.179 17.0011 180.329 17.0416 180.463 17.0821C180.598 17.1226 180.725 17.1631 180.837 17.2036C181.052 17.3089 181.295 17.3479 181.533 17.3158C181.771 17.2836 181.994 17.1817 182.173 17.0232C182.293 16.8993 182.386 16.7527 182.446 16.5924C182.502 16.4446 182.536 16.2895 182.547 16.1321V15.6939V15.2999C182.542 15.1677 182.521 15.0366 182.483 14.9096ZM121.759 8.79259C122.016 8.70904 122.287 8.67775 122.557 8.70062C122.821 8.67995 123.086 8.71166 123.338 8.79388C123.589 8.8761 123.821 9.00715 124.021 9.17931C124.199 9.38556 124.335 9.62512 124.418 9.88381C124.501 10.1425 124.531 10.4151 124.506 10.6853C124.53 10.957 124.499 11.2307 124.415 11.4905C124.331 11.7503 124.196 11.991 124.017 12.1988C123.814 12.3745 123.577 12.5081 123.32 12.5916C123.063 12.6751 122.792 12.7068 122.523 12.6848C122.259 12.706 121.992 12.6745 121.74 12.5923C121.488 12.5101 121.255 12.3787 121.056 12.2061C120.877 11.9999 120.742 11.7603 120.658 11.5016C120.575 11.2429 120.545 10.9704 120.57 10.7001C120.546 10.4281 120.577 10.1541 120.661 9.89418C120.746 9.63425 120.883 9.39368 121.063 9.18667C121.266 9.01021 121.503 8.87614 121.759 8.79259ZM123.625 14.0241C123.454 13.9386 123.27 13.8838 123.08 13.862C122.901 13.8427 122.722 13.8341 122.542 13.8363C122.367 13.8341 122.193 13.8427 122.019 13.862C121.834 13.8847 121.654 13.9369 121.485 14.0167C121.268 14.122 121.091 14.2938 120.981 14.5064C120.898 14.67 120.855 14.8502 120.854 15.033V27.943C120.856 28.121 120.899 28.2963 120.981 28.4548C121.097 28.6858 121.295 28.8667 121.538 28.963C121.685 29.0234 121.839 29.0666 121.997 29.0918C122.18 29.1201 122.364 29.1337 122.55 29.1324C122.742 29.1343 122.935 29.1196 123.125 29.0882C123.284 29.0639 123.44 29.0193 123.588 28.9556C123.788 28.8683 123.959 28.7248 124.078 28.5428C124.197 28.3608 124.259 28.1484 124.256 27.9319V15.033C124.257 14.8243 124.2 14.6193 124.09 14.4411C123.979 14.2629 123.821 14.1185 123.632 14.0241H123.625ZM137.687 24.616C137.855 24.7487 137.983 24.9227 138.06 25.1204C138.119 25.2671 138.158 25.4206 138.176 25.577C138.199 25.7319 138.209 25.8883 138.206 26.0447C138.206 26.1206 138.201 26.1934 138.196 26.2621C138.191 26.3233 138.187 26.3812 138.187 26.435C138.175 26.5595 138.151 26.6828 138.117 26.8032C138.077 26.9439 138.017 27.078 137.937 27.2009C137.836 27.3481 137.718 27.4839 137.586 27.6059C137.352 27.8239 137.095 28.0176 136.821 28.1841C136.461 28.4153 136.078 28.6091 135.678 28.7622C135.251 28.9254 134.812 29.0547 134.364 29.1488C133.873 29.2525 133.372 29.3044 132.87 29.3035C131.929 29.3192 130.994 29.1424 130.126 28.7843C129.311 28.4394 128.597 27.9004 128.046 27.2156C127.478 26.4891 127.061 25.6596 126.818 24.7743C126.545 23.7469 126.416 22.6878 126.433 21.626C126.41 20.445 126.578 19.268 126.93 18.1389C127.225 17.2188 127.712 16.3697 128.36 15.646C128.958 14.9948 129.702 14.4905 130.533 14.1731C131.357 13.8607 132.234 13.7033 133.117 13.7091C133.591 13.7083 134.064 13.7551 134.528 13.8491C134.952 13.9343 135.367 14.0575 135.768 14.2173C136.132 14.3593 136.48 14.5383 136.806 14.7512C137.056 14.9074 137.29 15.0875 137.504 15.2888C137.63 15.4073 137.745 15.5367 137.848 15.6755C137.941 15.807 138.013 15.9524 138.06 16.1063C138.102 16.2397 138.13 16.3765 138.146 16.515C138.165 16.6328 138.165 16.769 138.165 16.9235V16.9237C138.19 17.3011 138.089 17.676 137.878 17.9916C137.773 18.1443 137.632 18.2696 137.468 18.3568C137.303 18.444 137.12 18.4906 136.933 18.4924C136.536 18.4723 136.161 18.3084 135.88 18.0321C135.667 17.8512 135.442 17.684 135.208 17.5313C134.905 17.3388 134.582 17.1784 134.244 17.0526C133.841 16.9094 133.414 16.842 132.986 16.8538C132.554 16.8282 132.123 16.9139 131.735 17.1024C131.346 17.2909 131.015 17.5758 130.772 17.929C130.197 18.7317 129.906 19.9579 129.906 21.5744C129.894 22.3023 129.976 23.0288 130.152 23.7359C130.275 24.2438 130.496 24.7238 130.802 25.1499C131.043 25.4695 131.363 25.723 131.731 25.8863C132.144 26.0668 132.591 26.1561 133.042 26.1478C133.457 26.1573 133.869 26.086 134.256 25.9379C134.608 25.7974 134.946 25.6235 135.264 25.4187C135.522 25.2496 135.771 25.0677 136.011 24.8737C136.287 24.605 136.65 24.4396 137.037 24.4061C137.271 24.4055 137.499 24.4791 137.687 24.616ZM150.853 15.7804C150.311 15.1244 149.623 14.5992 148.844 14.2449C147.939 13.8508 146.957 13.6584 145.969 13.6815C144.997 13.6711 144.034 13.8566 143.138 14.2265C142.286 14.5891 141.528 15.1366 140.92 15.8283C140.293 16.559 139.822 17.4069 139.535 18.3212C139.212 19.3549 139.054 20.432 139.068 21.5137C139.052 22.6176 139.206 23.7176 139.524 24.7762C139.799 25.6915 140.27 26.5379 140.905 27.258C141.532 27.9463 142.317 28.4766 143.194 28.8046C144.15 29.153 145.163 29.3241 146.182 29.309C146.807 29.3115 147.432 29.2598 148.049 29.1544C148.552 29.0652 149.05 28.9509 149.542 28.8119C149.926 28.7072 150.301 28.5718 150.662 28.4069C150.91 28.3086 151.14 28.1705 151.342 27.9981C151.434 27.9088 151.514 27.8086 151.581 27.6999C151.651 27.5849 151.705 27.461 151.742 27.3317C151.766 27.2445 151.784 27.156 151.798 27.0665C151.813 26.9617 151.82 26.8558 151.82 26.7499C151.821 26.5898 151.811 26.4299 151.79 26.2712C151.768 26.1122 151.722 25.9572 151.656 25.8109C151.567 25.6146 151.423 25.4474 151.241 25.3293C151.059 25.2111 150.847 25.147 150.629 25.1444C150.334 25.1605 150.047 25.241 149.789 25.3801C149.587 25.4721 149.318 25.5826 148.986 25.7041C148.614 25.8346 148.233 25.9403 147.847 26.0208C147.368 26.1176 146.88 26.1632 146.391 26.157C145.763 26.1756 145.138 26.073 144.55 25.8551C144.119 25.6814 143.741 25.4011 143.452 25.0413C143.145 24.6433 142.929 24.1849 142.817 23.6973C142.729 23.3255 142.669 22.9476 142.638 22.5668H150.689C151.057 22.5605 151.414 22.4394 151.708 22.2207C151.925 22.0609 152.097 21.8493 152.209 21.6059C152.321 21.3625 152.368 21.0951 152.346 20.8288V20.4863C152.349 19.6389 152.234 18.795 152.003 17.9787C151.776 17.1762 151.384 16.4281 150.853 15.7804ZM142.873 18.9508C143.014 18.5473 143.229 18.1728 143.508 17.8462C143.78 17.5204 144.12 17.2566 144.505 17.0729C144.929 16.878 145.393 16.7822 145.86 16.793C146.884 16.793 147.627 17.0766 148.127 17.6584C148.55 18.1863 148.801 18.8281 148.848 19.4995H142.724C142.764 19.3138 142.815 19.1306 142.877 18.9508H142.873ZM174.609 11.0548C174.576 11.2332 174.51 11.4041 174.415 11.5593C174.308 11.7373 174.157 11.8846 173.974 11.9864C173.79 12.0939 173.58 12.1499 173.366 12.1485H168.623V27.938C168.625 28.1432 168.568 28.3446 168.459 28.5198C168.335 28.722 168.147 28.8795 167.925 28.969C167.777 29.0299 167.621 29.0731 167.462 29.0979C167.277 29.1255 167.09 29.1391 166.902 29.1384C166.716 29.1394 166.53 29.1258 166.346 29.0979C166.183 29.0735 166.024 29.0302 165.872 28.969C165.665 28.8852 165.488 28.7422 165.364 28.5584C165.24 28.3747 165.175 28.1586 165.177 27.938V12.1485H160.435C160.206 12.1504 159.982 12.0878 159.789 11.968C159.624 11.8644 159.486 11.7245 159.386 11.5593C159.292 11.4021 159.226 11.2302 159.191 11.0512C159.16 10.891 159.145 10.7282 159.147 10.5651C159.145 10.3947 159.16 10.2245 159.191 10.0569C159.225 9.88137 159.286 9.71225 159.374 9.55616C159.474 9.37873 159.616 9.22822 159.789 9.11798C159.982 8.99819 160.206 8.93556 160.435 8.93755H173.366C173.581 8.93655 173.792 8.9925 173.978 9.09956C174.165 9.20887 174.32 9.36514 174.426 9.55248C174.516 9.70914 174.578 9.87975 174.609 10.0569C174.64 10.2246 174.655 10.3947 174.654 10.5651C174.655 10.7294 174.64 10.8934 174.609 11.0548ZM192.801 15.2033C192.293 14.6844 191.665 14.2952 190.971 14.0692C190.148 13.8073 189.286 13.6828 188.421 13.7009C187.903 13.7013 187.387 13.7493 186.879 13.8446C186.398 13.9301 185.925 14.0532 185.464 14.2128C185.058 14.3484 184.663 14.5146 184.284 14.7099C183.976 14.858 183.692 15.049 183.44 15.277C183.225 15.4773 183.07 15.732 182.992 16.0134C182.943 16.2334 182.92 16.4584 182.924 16.6836C182.923 16.8291 182.934 16.9745 182.958 17.1181C182.988 17.2955 183.053 17.4655 183.148 17.6189C183.272 17.8135 183.455 17.9644 183.671 18.0497C183.821 18.109 183.981 18.139 184.142 18.1381C184.475 18.1161 184.796 18.0026 185.068 17.8103C185.272 17.6851 185.537 17.5415 185.863 17.3795C186.212 17.2131 186.574 17.0764 186.946 16.9708C187.374 16.8499 187.818 16.7916 188.264 16.7977C188.684 16.785 189.103 16.8423 189.504 16.9671C189.759 17.0461 189.989 17.188 190.172 17.3795C190.355 17.5919 190.483 17.8445 190.545 18.116C190.646 18.5232 190.694 18.9415 190.687 19.3606V19.622H189.444C188.515 19.614 187.588 19.7103 186.681 19.9092C185.887 20.0793 185.128 20.3846 184.44 20.8114C183.777 21.2201 183.233 21.793 182.863 22.4733C182.494 23.1536 182.312 23.9174 182.334 24.6888C182.327 25.3381 182.454 25.9821 182.708 26.5815C182.954 27.1453 183.324 27.6483 183.791 28.0544C184.279 28.4718 184.85 28.7852 185.467 28.9749C186.149 29.1855 186.859 29.2887 187.573 29.2806C188.467 29.2802 189.349 29.0761 190.15 28.684C190.418 28.554 190.678 28.4063 190.926 28.2422C190.986 28.4521 191.108 28.6395 191.277 28.7798C191.462 28.9279 191.682 29.0279 191.916 29.0707C192.31 29.1467 192.716 29.1467 193.111 29.0707C193.33 29.0216 193.535 28.9219 193.708 28.7798C193.829 28.6731 193.925 28.5418 193.99 28.395C194.054 28.2481 194.086 28.0892 194.082 27.9292V19.217C194.09 18.4717 193.997 17.7286 193.805 17.0076C193.625 16.3343 193.28 15.7147 192.801 15.2033ZM187.73 26.1912C187.209 26.2335 186.692 26.0766 186.285 25.753C186.129 25.601 186.009 25.4178 185.931 25.2157C185.854 25.0136 185.822 24.7975 185.837 24.582C185.829 24.3151 185.885 24.05 186.001 23.8087C186.119 23.5883 186.291 23.4008 186.502 23.2638C186.813 23.0648 187.158 22.9238 187.521 22.8477C188.054 22.7324 188.599 22.678 189.145 22.6856H190.691V24.5673C190.253 25.0394 189.75 25.4496 189.198 25.7861C188.755 26.0504 188.247 26.1904 187.73 26.1912ZM207.226 13.8442C207.411 13.8594 207.592 13.9081 207.76 13.9878C207.949 14.0895 208.105 14.243 208.208 14.4297C208.304 14.6048 208.353 14.8013 208.35 15.0004C208.355 15.0691 208.355 15.138 208.35 15.2067V15.3171C208.341 15.3794 208.327 15.4409 208.309 15.5012L208.271 15.6301L203.514 28.2234C203.439 28.4305 203.31 28.6146 203.141 28.7573C202.998 28.8758 202.833 28.9647 202.655 29.0188C202.49 29.0727 202.318 29.1061 202.144 29.1182C202.002 29.1366 201.837 29.1366 201.651 29.1366C201.472 29.1371 201.294 29.1273 201.117 29.1072C200.952 29.0916 200.789 29.0582 200.631 29.0077C200.453 28.95 200.287 28.8601 200.142 28.7426C199.98 28.6141 199.852 28.4486 199.769 28.2602V28.2234L195.012 15.6596C194.975 15.5663 194.949 15.487 194.93 15.4286L194.93 15.4274L194.93 15.4269L194.929 15.4239C194.906 15.353 194.888 15.2804 194.877 15.2067C194.871 15.1381 194.871 15.069 194.877 15.0004C194.875 14.791 194.931 14.5849 195.038 14.4039C195.168 14.1946 195.365 14.0339 195.598 13.9473C195.751 13.8922 195.91 13.8575 196.072 13.8442H196.543C196.743 13.8416 196.944 13.8502 197.144 13.87C197.32 13.8868 197.493 13.9264 197.659 13.9878C197.872 14.0698 198.056 14.2104 198.189 14.3929C198.259 14.4938 198.319 14.6011 198.369 14.7132V14.7648L201.692 23.9152L204.952 14.7869C204.999 14.6304 205.077 14.4843 205.179 14.3561C205.314 14.1898 205.492 14.0625 205.695 13.9878C205.854 13.9258 206.021 13.8861 206.191 13.87C206.381 13.8503 206.572 13.8417 206.763 13.8442H207.226ZM220.306 15.7804C219.763 15.1244 219.076 14.5992 218.297 14.2449C217.392 13.8508 216.41 13.6584 215.421 13.6815C214.451 13.6707 213.489 13.8562 212.595 14.2265C211.742 14.5881 210.984 15.1358 210.377 15.8283C209.75 16.5597 209.278 17.4073 208.988 18.3212C208.664 19.3549 208.507 20.432 208.521 21.5137C208.5 22.6169 208.649 23.7168 208.962 24.7762C209.236 25.6915 209.708 26.5379 210.343 27.258C210.972 27.9447 211.756 28.4747 212.632 28.8046C213.588 29.1527 214.601 29.3237 215.619 29.309C216.245 29.3115 216.87 29.2598 217.486 29.1544C217.99 29.0656 218.488 28.9513 218.98 28.8119C219.364 28.7063 219.738 28.5709 220.1 28.4069C220.347 28.3089 220.576 28.1707 220.776 27.9981C220.868 27.9079 220.949 27.8078 221.019 27.6999C221.087 27.5841 221.139 27.4604 221.176 27.3317C221.2 27.2445 221.219 27.156 221.232 27.0665C221.247 26.9617 221.254 26.8558 221.254 26.7499C221.257 26.5898 221.247 26.4297 221.224 26.2712C221.202 26.1122 221.157 25.9572 221.09 25.8109C221.003 25.6137 220.861 25.4457 220.679 25.3273C220.497 25.209 220.284 25.1454 220.067 25.1444C219.772 25.1605 219.485 25.241 219.227 25.3801C219.029 25.4721 218.756 25.5826 218.424 25.7041C218.052 25.8346 217.671 25.9404 217.285 26.0208C216.807 26.1174 216.32 26.1631 215.832 26.157C215.204 26.1762 214.579 26.0737 213.991 25.8551C213.553 25.6842 213.167 25.4038 212.871 25.0413C212.564 24.6439 212.349 24.1852 212.24 23.6973C212.16 23.325 212.11 22.947 212.091 22.5668H220.141C220.511 22.5601 220.869 22.439 221.164 22.2207C221.377 22.0602 221.546 21.8499 221.656 21.6087C221.765 21.3676 221.812 21.1033 221.792 20.8398V20.4974C221.795 19.6499 221.679 18.8061 221.448 17.9898C221.225 17.184 220.836 16.432 220.306 15.7804ZM212.315 18.9509C212.456 18.5473 212.671 18.1728 212.95 17.8462C213.225 17.5192 213.569 17.2553 213.958 17.0729C214.382 16.878 214.846 16.7822 215.313 16.7931C216.336 16.7931 217.079 17.0766 217.58 17.6584C218.004 18.1859 218.257 18.8278 218.304 19.4995H212.158C212.199 19.3154 212.255 19.1313 212.315 18.9509ZM226.836 7.70379C227.026 7.80404 227.185 7.95127 227.299 8.13093C227.404 8.30751 227.459 8.50823 227.46 8.71272V27.9414C227.463 28.1579 227.401 28.3703 227.282 28.5523C227.163 28.7343 226.992 28.8778 226.792 28.9651C226.643 29.0295 226.486 29.074 226.325 29.0977C226.136 29.1292 225.945 29.144 225.754 29.1418C225.567 29.1431 225.381 29.1296 225.197 29.1013C225.04 29.0761 224.885 29.0329 224.738 28.9725C224.497 28.8736 224.3 28.6935 224.182 28.4643C224.099 28.3022 224.057 28.1229 224.058 27.9414V8.72745C224.057 8.54443 224.101 8.36384 224.185 8.20089C224.293 7.98274 224.47 7.80546 224.689 7.69642C224.858 7.61615 225.038 7.56389 225.223 7.54177C225.397 7.52246 225.572 7.51385 225.746 7.51599C225.924 7.51368 226.103 7.52229 226.28 7.54177C226.474 7.5621 226.662 7.61699 226.836 7.70379Z" fill="#F37821"/>
</svg>
